<svg xmlns="http://www.w3.org/2000/svg" xmlns:xlink="http://www.w3.org/1999/xlink" viewBox="0 0 115.71734 40" enable-background="new 0 0 115.71734 40" xml:space="preserve"><g><path d="M16.86509,22.21441c-0.70485,1.55819-1.78074,2.82012-3.22766,3.78413c-1.44742,0.96516-3.06149,1.44692-4.84173,1.44692c-2.41203,0-4.48044-0.86242-6.2053-2.58728c-1.7254-1.7254-2.58783-3.80301-2.58783-6.23382c0-2.42976,0.86243-4.50302,2.58783-6.21873c1.72485-1.71626,3.79327-2.5744,6.2053-2.5744c1.76196,0,3.37174,0.47851,4.8283,1.43344c1.45551,0.95597,2.52655,2.212,3.21318,3.77069h-2.38676c-0.56242-0.95971-1.30977-1.74847-2.25985-2.34745c-1.04687-0.65761-2.19637-0.98719-3.44915-0.98719c-1.82919,0-3.39922,0.67964-4.70844,2.03885C2.72321,15.09885,2.0678,16.7323,2.0678,18.6389c0,1.90709,0.65541,3.53951,1.96518,4.89872c1.30922,1.35927,2.87925,2.03885,4.70844,2.03885c1.25279,0,2.40228-0.32847,3.44915-0.98713c0.95333-0.60057,1.70123-1.39853,2.2647-2.37492H16.86509z"/><path d="M28.45521,16.86026c-1.20114-1.20813-2.67328-1.8195-4.37341-1.8195c-1.69584,0-3.17337,0.61081-4.3853,1.8195c-1.20544,1.20764-1.81625,2.68137-1.81625,4.38261c0,1.70118,0.61081,3.17656,1.81625,4.38629c1.21083,1.20549,2.68517,1.8163,4.3853,1.8163c1.70118,0,3.17227-0.61081,4.37341-1.81845c1.19795-1.21188,1.80447-2.68781,1.80447-4.38415C30.25968,19.54647,29.65316,18.07164,28.45521,16.86026z M27.12502,24.3049c-0.83985,0.85219-1.83563,1.26622-3.04321,1.26622c-1.20335,0-2.20661-0.41403-3.0583-1.26787c-0.85274-0.85378-1.27002-1.85495-1.27002-3.06039c0-1.20604,0.41728-2.20501,1.27002-3.0583c0.85169-0.85279,1.85066-1.26892,3.0583-1.26892c1.20758,0,2.20336,0.41613,3.04751,1.26727c0.84629,0.85543,1.25708,1.85661,1.25708,3.05995C28.38639,22.44505,27.9756,23.44732,27.12502,24.3049z"/><path d="M43.80688,27.44546h-1.87323v-6.2026c0-1.20709-0.40864-2.20716-1.25603-3.0583c-0.84304-0.85279-1.83772-1.26892-3.04432-1.26892c-1.23445,0-2.23238,0.41613-3.07118,1.26727c-0.84949,0.85494-1.25923,1.85391-1.25923,3.05995v6.2026h-1.87538v-6.2026c0-1.70013,0.60646-3.17282,1.80871-4.38156c1.19905-1.20918,2.66904-1.82054,4.37022-1.82054c1.72485,0,3.19594,0.61136,4.39819,1.8195c1.19795,1.20764,1.80227,2.68137,1.80227,4.38261V27.44546z"/><path d="M55.02817,23.12149c-0.32693,0.67529-0.79035,1.25923-1.43558,1.70063c-0.72374,0.49899-1.53666,0.74901-2.41737,0.74901c-1.2012,0-2.20341-0.41403-3.05615-1.26677c-0.85709-0.85813-1.27107-1.8593-1.27107-3.06149c0-1.20175,0.41398-2.20342,1.27107-3.0583c0.85273-0.85279,1.85066-1.26892,3.05615-1.26892c0.88071,0,1.69363,0.25161,2.41737,0.74846c0.64523,0.4398,1.08932,1.00327,1.41945,1.66567h2.05713c-0.3957-1.24844-1.13771-2.28727-2.21415-3.08302c-1.08067-0.80005-2.31843-1.20599-3.67979-1.20599c-1.70013,0-3.17122,0.61081-4.38205,1.8195c-1.20439,1.20979-1.8152,2.68352-1.8152,4.38261c0,1.69848,0.61081,3.17496,1.8152,4.38629c1.20654,1.20549,2.68192,1.8163,4.38205,1.8163c1.35921,0,2.59477-0.40545,3.67979-1.20279c1.08073-0.80544,1.83029-1.84906,2.22169-3.10504v-0.01613H55.02817z"/><path d="M70.47289,21.24286c0-1.70013-0.60652-3.17282-1.80662-4.38261c-1.199-1.20813-2.67119-1.8195-4.37126-1.8195c-1.69479,0-3.17337,0.61081-4.3853,1.8195c-1.20764,1.20764-1.8184,2.68137-1.8184,4.38261c0,1.04896,0.27848,1.89476,0.28817,1.92592c0.29252,0.90653,0.80654,1.7324,1.53022,2.46037c1.20979,1.20549,2.68407,1.8163,4.3853,1.8163h3.57876v-1.87433h-3.57876c-1.20335,0-2.20556-0.41403-3.0583-1.26787c-0.46348-0.46183-0.72588-0.78876-0.94419-1.3678c0-0.00864-0.20966-0.6608-0.20536-1.30873h10.38573V21.24286z M60.2345,19.75134c0.2602-0.74631,0.70755-1.3716,1.36461-1.90126c0.78716-0.62904,1.66787-0.93444,2.68622-0.93444c1.0162,0,1.89151,0.3054,2.67763,0.9334c0.65701,0.52905,1.11294,1.15599,1.38289,1.9023H60.2345z"/><path d="M82.05811,16.88553c-1.19685-1.20764-2.66898-1.8206-4.37126-1.8206c-1.70118,0-3.17337,0.61191-4.3831,1.8195c-1.20119,1.20279-1.81416,2.66744-1.8163,4.35893v10.93312h1.88512v-6.46126c1.1947,1.16354,2.64751,1.75442,4.31428,1.75442c1.70013,0,3.17227-0.61186,4.37347-1.82054c1.19789-1.20979,1.80656-2.68352,1.80656-4.3815C83.86687,19.57015,83.2582,18.09531,82.05811,16.88553z M80.73006,24.32853c-0.84415,0.85328-1.83668,1.26892-3.04321,1.26892c-1.20979,0-2.20556-0.41613-3.0583-1.27106c-0.83771-0.83501-1.25598-1.87109-1.25598-3.08302c0-1.19525,0.41079-2.18778,1.25598-3.03622c0.85274-0.85494,1.85065-1.26837,3.0583-1.26837c1.20225,0,2.19692,0.41343,3.04431,1.26837c0.84955,0.85489,1.26248,1.8555,1.26248,3.06045C81.99364,22.47517,81.5807,23.47419,80.73006,24.32853z"/><path d="M91.62661,27.44546h-0.38502c-1.69903,0-3.17546-0.61081-4.38095-1.8163c-1.21083-1.21298-1.82269-2.68996-1.82269-4.38629v-9.56685h1.87968v3.36475h4.70898v1.87489h-4.70898v4.32722c0,1.20703,0.41293,2.20876,1.27002,3.06039c0.85059,0.85384,1.85066,1.26787,3.05395,1.26787h0.38502V27.44546z"/><path d="M109.94139,15.16871c-0.47421-1.08772-1.12858-2.0394-1.96574-2.85668c-1.70927-1.67266-3.7621-2.50876-6.15855-2.50876h-5.51867v17.64218h5.46278h0.05589c0.01723,0,0.03656,0,0.05539,0c1.69044,0,3.25133-0.45489,4.68206-1.36516c1.11514-0.72533,2.02492-1.65333,2.73142-2.7873c0.46452-0.7065,0.80863-1.4668,1.03123-2.28512c0.22315-0.78127,0.33442-1.57917,0.33442-2.3975C110.65163,17.40329,110.41511,16.25539,109.94139,15.16871z M108.57948,19.37657c-0.06667,0.5307-0.18175,1.03448-0.34626,1.51409c-0.4447,1.36945-1.23935,2.48619-2.38515,3.35027c-1.14521,0.86347-2.42651,1.30438-3.84381,1.32211h-3.83038V11.67601h3.75616c1.74693,0,3.26372,0.61615,4.54871,1.84692c0.55972,0.54893,1.0216,1.17427,1.38399,1.87483c0.51077,1.00976,0.76674,2.0792,0.76674,3.20778C108.62947,18.86255,108.61174,19.11956,108.57948,19.37657z"/><path d="M112.19547,9.85896c0.03445,0.03162,0.05167,0.07037,0.05167,0.11625c0,0.04601-0.01722,0.08476-0.05167,0.11624c-0.03444,0.03162-0.08046,0.04736-0.13778,0.04736h-0.83524v2.17856c0,0.05166-0.01871,0.09472-0.05598,0.12916c-0.03741,0.03444-0.08476,0.05166-0.14208,0.05166c-0.05746,0-0.10481-0.01722-0.14208-0.05166c-0.03741-0.03444-0.05597-0.0775-0.05597-0.12916v-2.17856h-0.84386c-0.05167,0-0.09472-0.01574-0.12916-0.04736c-0.03445-0.03148-0.05168-0.07023-0.05168-0.11624c0-0.04588,0.01723-0.08463,0.05168-0.11625c0.03444-0.03148,0.07748-0.04735,0.12916-0.04735h2.07522C112.11501,9.81161,112.16103,9.82748,112.19547,9.85896z"/><path d="M115.49345,9.81161c0.05732,0,0.10899,0.01587,0.15499,0.04735c0.04588,0.03162,0.06889,0.0732,0.06889,0.12486v2.33356c0,0.05166-0.02018,0.09472-0.06028,0.12916c-0.04023,0.03444-0.08611,0.05166-0.13778,0.05166c-0.05745,0-0.10629-0.01722-0.14639-0.05166c-0.04023-0.03444-0.06026-0.0775-0.06026-0.12916v-1.74801l-0.9386,1.65329c-0.02879,0.06324-0.08327,0.09472-0.1636,0.09472c-0.08611,0-0.15218-0.03727-0.19804-0.11194l-0.92136-1.60163v1.71357c0,0.05166-0.02018,0.09472-0.06028,0.12916c-0.04023,0.03444-0.08907,0.05166-0.14639,0.05166c-0.05746,0-0.10481-0.01722-0.14208-0.05166c-0.03741-0.03444-0.05597-0.0775-0.05597-0.12916V9.98383c0-0.05166,0.02287-0.09472,0.06889-0.12916c0.04588-0.03444,0.09753-0.05166,0.15498-0.05166c0.09177,0,0.15501,0.03444,0.18945,0.10332l1.1022,1.90302l1.10219-1.90302C115.33846,9.84322,115.40157,9.81161,115.49345,9.81161z"/></g></svg>