<svg xmlns="http://www.w3.org/2000/svg" xmlns:xlink="http://www.w3.org/1999/xlink" viewBox="0 0 50 40" style="enable-background:new 0 0 50 40;" xml:space="preserve"><path id="acer_logo" class="st0" d="M49.90997,14.534c-0.172-0.25098-0.37701-0.42102-1.22803-0.487c-0.22498-0.01703-0.96198-0.04102-2.20001-0.04102c-3.26398,0-5.48102,0.99103-6.61603,2.948c0.31201-1.96802-1.60663-2.9527-5.75598-2.95398c-4.87335,0-7.91602,1.96436-9.12799,5.89301c-0.44305,1.14911-0.49268,2.41272-0.14099,3.59302l-1.151,0.078c-0.90002,0.06799-2.08197,0.13-2.80603,0.13c-1.78333-0.00006-2.88898-0.29999-3.31702-0.90002c-0.38397-0.53802-0.34601-1.53497,0.09998-2.99103c0.742-2.41199,2.586-3.5,5.53101-3.5c1.526,0,3.01202,0.15997,3.01202,0.15997c0.18207-0.02954,0.30573-0.20111,0.27618-0.38318c-0.00092-0.00568-0.00195-0.01129-0.00317-0.01685l-0.02899-0.22998l-0.10498-0.81097c-0.06665-0.53333-0.46265-0.84863-1.18799-0.94598c-0.66101-0.04401-1.15302-0.07501-1.87903-0.07501h-0.039c-3.84937,0.00867-6.53131,1.27368-8.04602,3.79498c0.55536-2.53326-1.22668-3.79999-5.34601-3.79999c-1.64581-0.02734-3.29181,0.03943-4.92999,0.20001c-0.61963-0.00891-1.17883,0.37012-1.40002,0.94897l-0.32703,1.04199c-0.05902,0.19,0.03198,0.28601,0.27698,0.28601h0.008c0.18201-0.02301,0.87799-0.091,2.07001-0.18799c1.57703-0.12598,2.74402-0.19,3.51398-0.19c2.26672,0,3.22302,0.56665,2.86902,1.70001c-0.06726,0.24194-0.26691,0.42413-0.51398,0.46899c-2.14667,0.35596-3.84967,0.61163-5.10901,0.76703c-3.54596,0.4527-5.5943,1.55865-6.14502,3.31799c-0.75592,2.41937,1.13934,3.62903,5.68597,3.62903c1.91077,0.0246,3.82043-0.10614,5.71002-0.39099c0.88702-0.14899,1.336-0.37598,1.51398-0.948l0.84698-2.70001c-0.08899,2.69501,1.79999,4.052,5.66998,4.052c1.34064,0.02698,2.68152-0.03479,4.01398-0.185c0.79401-0.138,1.172-0.31,1.349-0.90997l0.172-0.849c0.82526,1.28528,2.63361,1.92804,5.42499,1.92798c1.72156,0.07892,3.44678-0.00342,5.15302-0.24597c0.3432-0.07074,0.62683-0.3111,0.75299-0.638c0.01691-0.05518,0.02899-0.11169,0.03601-0.16901l0.35303-1.14502c0.06201-0.20001-0.03003-0.29401-0.27197-0.28497l-1.88501,0.09003c-1.25732,0.07074-2.242,0.104-2.95398,0.09998c-0.92786,0.04773-1.85767-0.04468-2.758-0.27399c-0.71979-0.24493-1.1662-0.96436-1.06598-1.71802l5.96997-0.76501c2.67603-0.34198,4.46667-1.16699,5.37201-2.47498l-2.02802,7.04797c-0.04333,0.10657-0.02661,0.22815,0.04401,0.31897c0.10614,0.09869,0.24988,0.14648,0.39398,0.13098h2.47198c0.28516,0.04065,0.55707-0.13379,0.63898-0.40997l2.18298-7.61102c0.28802-1,1.20801-1.48999,2.81403-1.48999c1.45001,0,2.54303,0.01398,3.23999,0.039h0.05499c0.23523,0.00214,0.44244-0.15424,0.505-0.38098l0.383-1.04401c0.07727-0.1734,0.06104-0.37427-0.04303-0.53302 M10.08398,23.69104c-1.10327,0.13971-2.21515,0.19989-3.32703,0.17999c-2.51202,0.00006-3.60901-0.50696-3.29102-1.521c0.22803-0.72699,0.88501-1.164,1.97803-1.31299l5.71301-0.76801L10.08398,23.69104z M36.48401,17.52405c-0.24066,0.77997-1.35736,1.31335-3.34998,1.59998l-4.758,0.67603l0.12097-0.39099c0.23499-1.04352,0.82886-1.9715,1.67798-2.62201c1.09332-0.54663,2.31384-0.78845,3.53302-0.70001c2.14532,0,3.07062,0.47699,2.776,1.43103"/></svg>