<svg viewBox="0 0 124 40" xml:space="preserve" xmlns="http://www.w3.org/2000/svg"><path d="m10.55 7v15.1l7.02-2.33v7.73l-7.73 3.34-6.32-2.74v2.18l6.33 2.72 9.85-4.23v-17.85l-9.15-3.92zm7.03 10.57-4.91 1.63v-9.13l4.91 2.12v5.38z"/><path d="M9.14,7L0,10.92v17.85l2.12,0.91v-9.91l7.02,2.33V7z M2.12,17.57V12.2l4.91-2.12l0,9.13L2.12,17.57z"/><polygon points="42.59 14.8 40.45 14.8 40.45 24.6 49.08 24.6 49.08 23.04 42.59 23.04"/><polygon points="57.41 14.8 51.71 24.6 53.96 24.6 58.09 17.56 62.15 24.6 64.43 24.6 58.76 14.8"/><polygon points="67.04 14.8 67.04 24.6 69.1 24.6 69.1 17.68 76.63 24.6 78.36 24.6 78.36 14.8 76.3 14.8 76.3 21.76 68.77 14.8"/><polygon points="84.42 20.2 90.79 20.2 90.79 18.63 84.42 18.63 84.42 16.36 91.15 16.36 91.15 14.8 82.28 14.8 82.28 24.6 91.15 24.6 91.15 23.04 84.42 23.04"/><path d="m115.92 23.04h-7.42v1.57h9.34v-9.81h-9.74v6.02h7.82v2.22zm-5.91-3.79v-2.89h5.91v2.89h-5.91z"/><path d="m37.18 14.8h-9.74v9.81h2.14v-3.68h7.59v-6.13zm-2.14 4.56h-5.45v-2.99h5.45v2.99z"/><polygon points="98.55 24.6 100.69 24.6 100.69 16.36 104.83 16.36 104.83 14.8 94.42 14.8 94.42 16.36 98.55 16.36"/><path d="m121.36 14.84c0.03 0.02 0.04 0.05 0.04 0.09 0 0.03-0.01 0.06-0.04 0.09-0.03 0.02-0.06 0.04-0.1 0.04h-0.62v1.62c0 0.04-0.01 0.07-0.04 0.1s-0.06 0.04-0.11 0.04c-0.04 0-0.08-0.01-0.11-0.04s-0.04-0.06-0.04-0.1v-1.62h-0.63c-0.04 0-0.07-0.01-0.1-0.04-0.03-0.02-0.04-0.05-0.04-0.09 0-0.03 0.01-0.06 0.04-0.09 0.03-0.02 0.06-0.04 0.1-0.04h1.55c0.04 0 0.08 0.02 0.1 0.04zm2.47-0.04c0.04 0 0.08 0.01 0.12 0.04 0.03 0.02 0.05 0.05 0.05 0.09v1.74c0 0.04-0.02 0.07-0.05 0.1s-0.06 0.04-0.1 0.04-0.08-0.01-0.11-0.04-0.05-0.06-0.05-0.1v-1.3l-0.7 1.23c-0.02 0.05-0.06 0.07-0.12 0.07s-0.11-0.03-0.15-0.08l-0.69-1.19v1.28c0 0.04-0.02 0.07-0.05 0.1s-0.07 0.04-0.11 0.04-0.08-0.01-0.11-0.04-0.04-0.06-0.04-0.1v-1.74c0-0.04 0.02-0.07 0.05-0.1s0.07-0.04 0.12-0.04c0.07 0 0.12 0.03 0.14 0.08l0.82 1.42 0.82-1.42c0.05-0.05 0.09-0.08 0.16-0.08z"/></svg>