<?xml version="1.0" encoding="utf-8"?>
<!-- Generator: Adobe Illustrator 24.1.3, SVG Export Plug-In . SVG Version: 6.00 Build 0)  -->
<svg version="1.1" id="Layer_1" xmlns="http://www.w3.org/2000/svg" xmlns:xlink="http://www.w3.org/1999/xlink" x="0px" y="0px"
	 width="166.764px" height="50px" viewBox="0 0 166.764 50" style="enable-background:new 0 0 166.764 50;" xml:space="preserve">
<style type="text/css">
	.st0{fill:#FFFFFF;}
</style>
<path class="st0" d="M27.7,6.9v20.6l-5.9,5.9v-5.3l1.9-1.9v-5.1L20.6,26v17.1L17.8,36l-3.2-3.2V11.2l3.6,10.1l6-6.1L27.7,6.9z
	 M0,6.9v20.6l5.9,5.9v-5.3L4,26.3v-5.1L7.1,26v17.1L9.9,36l3.2-3.2V11.2L9.5,21.2l-6-6.1L0,6.9z M133.4,17.7l-2.1,3.7h1v8.2l1.1,2
	h12.2l1.1-2v-9.9l-1.1-2C145.6,17.7,133.4,17.7,133.4,17.7z M136.8,27.9v-6.5h5.3v6.5H136.8z M85.6,17.7l-2.1,3.7h1v10.2h13.3l1.1-2
	v-9.9l-1.1-2C97.8,17.7,85.6,17.7,85.6,17.7z M94.3,27.9H89v-6.5h5.3V27.9z M118.3,17.7l-2.1,3.7h5.1v10.5l4.6-2.3v-8.2h3.2l2.1-3.7
	H118.3z M79.7,26.7l2.1-3.7h-7.5v-1.5H81l2.1-3.7H69.8v13.9h9.9l2.1-3.7h-7.4v-1.2H79.7z M68.4,21.4l-3-3.7H52.3v14.2l4.6-2.3v-8.2
	h4.6l0.4,0.5l-4.5,4.2l12.7,9.3L63.3,27L68.4,21.4z M166.8,35.4L160,27l5.2-5.6l-3-3.7H149v14.2l4.6-2.3v-8.2h4.6l0.4,0.5l-4.5,4.2
	L166.8,35.4z M102.6,17.7l-2.1,3.7h1v10.5l4.6-2.3v-2.9h4.9v5.3l4.6-2.3v-9.9l-1.1-2L102.6,17.7L102.6,17.7z M110.9,23.2H106v-1.7
	h4.9V23.2z M51.1,21.4l-3-3.7H36.1L34,21.4h1v10.5l4.6-2.3v-3.5l3.3,1.5L51.1,21.4z M39.5,21.4h4.6l0.4,0.5l-5.1,3.5L39.5,21.4
	L39.5,21.4z"/>
</svg>
