<?xml version="1.0" encoding="utf-8"?>
<!-- Generator: Adobe Illustrator 24.3.0, SVG Export Plug-In . SVG Version: 6.00 Build 0)  -->
<svg version="1.1" id="Layer_1" xmlns="http://www.w3.org/2000/svg" xmlns:xlink="http://www.w3.org/1999/xlink" x="0px" y="0px"
	 viewBox="0 0 480 64" style="enable-background:new 0 0 480 64;" xml:space="preserve">
<style type="text/css">
	.st0{fill:#676767;}
	.st1{fill:#FFFFFF;}
	.st2{fill-rule:evenodd;clip-rule:evenodd;fill:#FFFFFF;}
	.st3{fill-rule:evenodd;clip-rule:evenodd;fill:#676767;}
	.st4{fill:#717171;}
	.st5{fill-rule:evenodd;clip-rule:evenodd;fill:#717171;}
</style>
<g>
	<path class="st0" d="M271.9,0C263.1,0,256,7.2,256,16s7.2,16,15.9,16c8.7,0,16.1-7.1,16.1-16S280.8,0,271.9,0z"/>
	<g id="XMLID_1_">
		<ellipse id="XMLID_8_" class="st1" cx="269.7" cy="9.3" rx="2.1" ry="3"/>
		<path id="XMLID_6_" class="st1" d="M265.9,16.4c2.1-0.4,1.8-2.9,1.7-3.5c-0.1-0.8-1.1-2.3-2.4-2.2c-1.7,0.2-1.9,2.6-1.9,2.6
			C263,14.6,263.8,16.9,265.9,16.4z"/>
		<path id="XMLID_5_" class="st1" d="M274.6,12.4c1.5,0.2,2.5-1.4,2.7-2.7c0.2-1.2-0.8-2.7-1.9-2.9c-1.1-0.3-2.5,1.5-2.6,2.6
			C272.7,10.8,273.1,12.2,274.6,12.4z"/>
		<path id="XMLID_4_" class="st1" d="M268.1,20.8c-0.1,0.2-0.2,0.6-0.1,1c0.2,0.9,1,0.9,1,0.9h1.1V20h-1.2
			C268.4,20.2,268.1,20.6,268.1,20.8z"/>
		<path id="XMLID_3_" class="st1" d="M278.4,19.8c0,0-2.4-1.8-3.8-3.8c-1.9-2.9-4.6-1.7-5.5-0.2s-2.3,2.4-2.5,2.7
			c-0.2,0.2-2.9,1.7-2.3,4.3s2.7,2.6,2.7,2.6s1.5,0.2,3.3-0.2c1.8-0.4,3.3,0.1,3.3,0.1s4.2,1.4,5.3-1.3
			C280.2,21.2,278.4,19.8,278.4,19.8z M271.2,23.8h-2.7c-1.2-0.2-1.6-1-1.7-1.2c-0.1-0.1-0.4-0.8-0.2-1.9c0.5-1.6,2-1.8,2-1.8h1.4
			v-1.8h1.2L271.2,23.8L271.2,23.8z M276.3,23.7h-3.1c-1.2-0.3-1.3-1.2-1.3-1.2V19h1.3v3.1c0.1,0.3,0.5,0.4,0.5,0.4h1.3v-3.6h1.3
			L276.3,23.7L276.3,23.7z"/>
		<path id="XMLID_2_" class="st1" d="M280.8,14.6c0-0.6-0.5-2.4-2.3-2.4s-2.1,1.7-2.1,2.9c0,1.1,0.1,2.7,2.4,2.7
			C281.1,17.7,280.8,15.1,280.8,14.6z"/>
	</g>
</g>
<g>
	<ellipse class="st0" cx="336" cy="16" rx="16" ry="16"/>
	<g>
		<path class="st2" d="M342.2,16c0-3.4-2.8-6.2-6.2-6.2s-6.2,2.8-6.2,6.2s2.8,6.2,6.2,6.2S342.2,19.4,342.2,16L342.2,16z M342,9
			c-0.6,0-1,0.4-1,1c0,0.6,0.4,1,1,1c0.5,0,1-0.4,1-1C343,9.4,342.6,9,342,9L342,9z M331,7.6h10c1.9,0,3.4,1.5,3.4,3.4v10
			c0,1.9-1.5,3.4-3.4,3.4h-10c-1.9,0-3.4-1.5-3.4-3.4V11C327.6,9.1,329.1,7.6,331,7.6L331,7.6z M341,6.4h-10c-2.5,0-4.5,2-4.5,4.5
			V21c0,2.5,2,4.5,4.5,4.5h10c2.5,0,4.5-2,4.5-4.5V11C345.6,8.5,343.5,6.4,341,6.4L341,6.4z M331.1,16c0-2.7,2.2-4.9,4.9-4.9
			c2.7,0,4.9,2.2,4.9,4.9s-2.2,4.9-4.9,4.9C333.3,20.9,331.1,18.7,331.1,16L331.1,16z"/>
	</g>
</g>
<g>
	<circle class="st0" cx="16" cy="16" r="16"/>
	<path class="st1" d="M13.8,11.3v1.8h-1.7v2.8h1.4c0,3.7,0,8.2,0,8.2h3.3c0,0,0-4.5,0-8.2h2.3l0.7-2.6h-2.6v-1.8
		c0-0.7,0.5-0.8,0.8-0.8c0.4,0,1.8,0,1.8,0V7.9h-2.5C14.4,7.9,13.8,10,13.8,11.3z"/>
</g>
<g>
	<circle class="st0" cx="48" cy="16" r="16"/>
	<g>
		<path class="st1" d="M47.9,14.5h-4.5v2.8h4.1c0,0.5-0.2,0.9-0.5,1.3c-0.9,1.1-2.2,1.7-3.6,1.7c-2.6,0-4.6-2-4.6-4.6s2-4.6,4.6-4.6
			c1.1,0,2.1,0.6,2.9,1.2l2-2c-1.3-1.1-3.1-1.9-5-1.9c-4.3,0-7.6,3.3-7.6,7.6s3.5,7.6,7.6,7.6c1.4,0,2.8-0.4,4-1.2
			c2.1-1.3,3.3-3.7,3.4-6.7c0-0.4-0.1-0.8-0.1-1.2C50.6,14.5,47.9,14.5,47.9,14.5z"/>
		<polygon class="st1" points="57.2,14.8 57.2,11.7 55.2,11.7 55.2,14.6 52.1,14.6 52.1,16.6 55.2,16.6 55.2,19.7 57.2,19.7 
			57.2,16.7 57.2,16.6 57.2,16.7 60.3,16.7 60.3,14.8 		"/>
	</g>
</g>
<g>
	<path class="st0" d="M80,0c-8.8,0-16,7.2-16,15.9C64,24.7,71.2,32,80,32s16-7.2,16-15.9C96,7.3,88.9,0,80,0z"/>
	<path class="st1" d="M87.6,9.8c-0.8,0.4-1.6,0.7-2.2,0.8c-0.5-0.6-1.5-1-2.4-1c-1.9,0-3.3,1.4-3.3,3.3c0,0.1,0,0.5,0.1,0.6
		C77,13.3,74.7,12,73,10c-0.1,0.6-0.4,1.3-0.4,1.8c0,1,0.5,2.2,1.4,2.7c-0.5,0-1-0.3-1.4-0.4c0,1.5,1.3,2.9,2.7,3.2
		c-0.3,0.1-0.6,0.1-0.9,0.1c-0.2,0-0.3-0.1-0.6-0.1c0.4,1.3,1.8,2.3,3.1,2.3c-1,0.8-2.7,1.3-4.1,1.3c-0.3,0-0.5,0-0.8,0
		c1.5,0.9,3.2,1.4,5.1,1.4c6,0,9.4-5.1,9.4-9.3c0-0.1,0-0.3,0-0.4c0.6-0.4,1.2-0.9,1.7-1.4c-0.6,0.2-1.3,0.4-1.9,0.5
		C86.8,11.2,87.3,10.6,87.6,9.8z"/>
</g>
<g>
	<circle class="st0" cx="112" cy="16" r="16"/>
	<g>
		<path class="st2" d="M111.9,9.2c-0.1,0-0.3,0-0.4,0c-0.3,0.1-0.8,0.2-1,0.8c0,0,0,0.3,0,0.4v2.1c0,0,0,0.4,0.2,0.7
			c0.2,0.2,0.4,0.5,0.8,0.5c0.1,0,0.2,0,0.3,0c0.4-0.1,0.7-0.3,0.8-0.5c0.2-0.3,0.2-0.7,0.2-0.7v-2.1c0-0.1,0-0.4,0-0.4
			C112.6,9.4,112.1,9.2,111.9,9.2 M112.1,10.4v2.1c0,0.5-0.4,0.5-0.4,0.5s-0.4,0-0.4-0.5v-2.1c0-0.6,0.4-0.6,0.4-0.6
			C112.1,9.9,112.1,10.4,112.1,10.4 M108.9,10l-0.6-2.4h-0.9l1.2,3.6v2.4h0.9v-2.4l1.1-3.6h-0.9L108.9,10z M115.1,9.2v3.5
			c-0.1,0.3-0.5,0.4-0.5,0.4c-0.3,0-0.3-0.2-0.3-0.2V9.2h-0.8v3.9c0,0.4,0.2,0.7,0.6,0.7s0.9-0.6,0.9-0.6v0.5h0.8V9.2H115.1z"/>
		<path class="st2" d="M117.7,15.1c-1-0.2-2.1-0.1-5.7-0.2c-2.4,0-3.6,0-3.8,0c-1.6,0.1-2.6-0.1-3,1.6c-0.2,1-0.3,2.2-0.3,3.1
			c0.1,2-0.1,4.4,1.9,4.6c1,0.1,3.6,0.1,5.3,0.1c2.3,0,4.9,0,5.7-0.2c0.4-0.1,0.7-0.5,0.8-0.6c0.5-0.7,0.5-1.7,0.6-3.9
			C119.1,17.7,119.2,15.3,117.7,15.1 M109.1,17.3h-1v5.2h-0.9v-5.2h-1v-0.9h2.9C109.1,16.3,109.1,17.3,109.1,17.3 M111.6,22.5h-0.8
			V22c0,0-0.4,0.6-0.9,0.6s-0.7-0.3-0.7-0.9v-3.8h0.8v3.7c0,0,0,0.2,0.2,0.2s0.5-0.3,0.5-0.4v-3.5h0.8L111.6,22.5L111.6,22.5z
			 M114.8,21.7c0,0-0.1,0.9-0.6,0.9s-0.8-0.3-1-0.5v0.5h-0.8v-6.1h0.8v2c0,0,0.4-0.5,0.8-0.5s0.8,0.3,0.8,0.8
			C114.8,18.8,114.8,21.7,114.8,21.7z M117.9,21.7c-0.1,0.8-1.1,0.9-1.1,0.9c-1.4,0-1.3-1.3-1.3-1.3v-2.2c0-0.2,0.1-0.4,0.1-0.4
			c0.1-0.3,0.2-0.8,1.2-0.8c1.2,0,1.2,1.2,1.2,1.2v1.3h-1.6v0.9c0,0.3,0.1,0.5,0.5,0.5c0.3,0,0.3-0.5,0.3-0.5V21h0.8
			C117.9,20.9,118,21.1,117.9,21.7 M117.1,19.1c0,0,0-0.5-0.4-0.5s-0.4,0.4-0.4,0.5v0.6h0.8V19.1z M113.6,18.6
			c-0.2,0-0.4,0.2-0.4,0.2v2.8c0.1,0.2,0.4,0.2,0.4,0.2c0.3,0,0.3-0.4,0.3-0.4v-2.3C113.9,18.8,113.8,18.6,113.6,18.6"/>
	</g>
</g>
<g>
	<circle class="st3" cx="144" cy="16" r="16"/>
	<g>
		<path class="st2" d="M153.6,17.4c-0.4-0.9-0.9-1.7-1.3-2.3c0.3-0.6,0.3-1.4,0-1.9c-0.1-0.3-0.3-0.5-0.4-0.8
			c-0.2-0.4-0.2-0.9-0.3-1.3c-0.1-0.4-0.3-0.8-0.4-1.2c-0.9-2.4-2.8-3.8-5.9-4.1c-0.4,0-0.8,0-1.2,0c-0.9,0-2,0.2-2.6,0.5
			c-0.8,0.4-1.3,0.8-1.8,1.3c-1,0.9-2.1,2.4-2.2,4.1c0,0.1,0,0.3,0,0.4c-0.2,0.1-0.3,0.3-0.3,0.4c-0.1,0.3-0.1,0.5-0.1,0.8
			c-0.3,0.5-0.6,1.2-0.3,1.8c-0.9,0.6-1.7,1.4-2.2,2.4c-0.3,0.8-0.7,1.9-0.6,3.2c0,0.4,0.1,0.9,0.4,0.9c0.1,0,0.3-0.1,0.4-0.1
			c0.4-0.3,0.6-0.5,0.9-0.9c0.2-0.1,0.2-0.4,0.3-0.5c0,0.2,0.1,0.4,0.1,0.5c0.5,1,1.1,1.8,1.7,2.3c0,0,0.3,0.2,0.3,0.3
			c-0.1,0-0.1,0-0.2,0c0.1,0,0.4,0.1,0.7,0c1.2,0.9,2.7,1.4,4.5,1.7c-0.4,0.6-1.6,0.9-2.8,0.9c-1.4,0-2.8-0.1-3.6-0.6
			c-0.2-0.1-0.3-0.2-0.4-0.3l0,0c0,0.5,0.7,0.9,1.2,1c0.9,0.3,2.3,0.4,3.5,0.3c1.2-0.2,1.8-0.4,2.6-0.8c0.2,0,0.2-0.1,0.3-0.1
			c0,0,0.3,0,0.4,0c0.1,0,0.3,0,0.4,0c0.3,0,0.6,0.2,0.9,0.3c1.8,0.5,4.7,0.6,6-0.3c0.2-0.1,0.5-0.3,0.5-0.6c0-0.4-0.2-0.6-0.5-0.9
			c-0.4-0.3-0.8-0.5-1.3-0.8c0.6-0.6,0.9-1.1,1.2-1.9c0.1-0.2,0.3-0.5,0.4-0.6c0.1,0.3,0.3,0.5,0.4,0.8c0.1,0.1,0.3,0.5,0.6,0.5
			c0.1,0,0.3-0.2,0.4-0.3c0.3-0.4,0.4-1,0.9-1.2C154.2,19.2,154,18.2,153.6,17.4z M140.1,13.1c0.6-0.3,1.5-0.5,2.3-0.6
			c-1.2-0.1-1.4-2.2-0.9-3.2c0.1-0.3,0.5-0.6,0.9-0.6c0.8,0,1.2,1,1.2,1.9c0.1,0.8-0.2,1.6-0.8,1.9c0.9-0.1,1.8-0.1,2.6-0.1
			c-0.8-0.5-0.9-2.3-0.5-3c0.2-0.2,0.4-0.5,0.8-0.5c0.1,0,0.3,0,0.4,0c1.2,0.4,1.2,3.2,0,3.6l0,0c0.8,0.2,1.5,0.4,2.1,0.8
			c0.1,0.1,0.4,0.3,0.4,0.4c0,0.2-0.5,0.5-0.6,0.5c-0.3,0.2-0.5,0.3-0.9,0.3c0.1-0.1,0.4-0.2,0.5-0.5c-1,0.7-2.3,1.3-4.1,1.2
			c-1-0.2-2-0.7-2.8-1.2c0,0.1,0.2,0.2,0.3,0.5c-0.3-0.1-0.9-0.3-1.2-0.4c0-0.2-0.2-0.2-0.5-0.4C139.3,13.5,139.8,13.2,140.1,13.1z
			 M151.1,23.6c-0.2,0-0.5,0-0.6,0.3c0.6,0,1.5-0.2,1.4,0.6c-0.1,0.1-0.3,0.4-0.4,0.5c-0.7,0.5-1.9,0.8-3.1,0.8
			c-1.1,0-2.4-0.2-2.9-0.6c1.9-0.2,3.3-1,4.4-2.1C150.4,23.1,150.7,23.3,151.1,23.6z M150.7,20.6c-0.1,0.8-0.6,1.5-1,2
			c-0.3,0.4-0.8,0.9-1.3,1.2c-0.5,0.3-1.2,0.5-1.7,0.8c-0.7,0.2-1.3,0.3-1.9,0.3c-1.8,0-3.6-0.4-4.9-1.2c-0.7-0.4-1.2-0.8-1.7-1.3
			c-0.5-0.6-0.9-1.2-1-2c-0.1-0.4-0.1-0.6-0.1-0.9c0-0.9,0.3-2.4,0.8-2.9c0.4,0.2,0.7,0.3,1,0.6c-0.1,0.9-0.1,1.5-0.1,2.3
			c0.1,0.2,0,0.5,0.1,0.6c0.2,0.5,0.8,0.9,1.4,0.9c0.2,0,0.7,0,1-0.1c0.1,0,0.4-0.2,0.4-0.5c0.1-0.2,0-0.6,0-1s0-0.7,0-1
			c3.1,0.7,6.1-0.2,8.2-1.8C150.4,17.7,151.2,18.9,150.7,20.6z"/>
		<path class="st2" d="M136.8,24c-0.2,0-0.4,0.1-0.5,0.1l0,0c0,0.2-0.1,0.3-0.1,0.5C136.3,24.4,136.5,24.1,136.8,24z"/>
		<path class="st2" d="M142.4,12.5c0.1,0,0.3,0,0.4-0.1C142.7,12.4,142.5,12.4,142.4,12.5z"/>
		<path class="st2" d="M146.1,12.5c-0.2,0-0.5-0.1-0.7-0.1c0.1,0,0.1,0.1,0.2,0.1S146,12.5,146.1,12.5z"/>
		<path class="st2" d="M137.8,23.3c-0.1,0-0.1,0-0.1,0c-0.5,0-0.7,0.1-1.1,0.4c-0.3,0.1-0.5,0.3-0.3,0.5c0,0,0,0,0-0.1
			C136.5,23.6,137,23.4,137.8,23.3z"/>
		<path class="st2" d="M136.2,24.6c0,0.1,0,0.2,0,0.3C136.2,24.8,136.2,24.7,136.2,24.6L136.2,24.6z"/>
	</g>
</g>
<g>
	<circle class="st3" cx="176" cy="16" r="16"/>
	<g>
		<path class="st2" d="M182.9,14.3c0.5,0,0.7-0.9,0.6-1.8c-0.1-1.4-1.4-2.4-2.8-2.3c-0.3,0-0.9,0-0.9,0.6c0,1.1,1.2,0.4,1.8,0.8
			c0.4,0.2,0.8,0.7,0.8,1.2C182.4,13.5,182.2,14.1,182.9,14.3z"/>
		<path class="st2" d="M181.3,15.5c0.3-0.8,0.5-2,0-2.6c-1.2-1.3-3.9,0-5.2,0.1c0.5-1.8,0-3.6-2.3-3.1c-2.1,0.5-3.6,1.7-5,3.1
			c-1.4,1.5-2.9,3.2-3.2,5.5c-0.3,2.4,1.2,3.8,2.9,4.7c4.6,2.8,12.2,1.2,14.8-2.3c0.4-0.6,0.7-1.4,0.8-1.9
			C184.2,16.5,182.4,16.2,181.3,15.5z M179.3,21c-1.3,1.5-4,2.4-6.8,2.3c-2.4-0.1-5.7-1.6-5.1-4.5c0.3-1.4,1.4-2.3,2.3-2.8
			c1.1-0.5,2.1-0.9,3.8-1c2.9-0.3,6.6,0.8,6.7,3.7C180.2,19.7,179.8,20.5,179.3,21z"/>
		<path class="st2" d="M173.2,16.7c-2,0.1-4,1.8-3.2,4.1c1.3,3.3,7.9,1.5,6.5-2.2C176.3,17.3,175,16.6,173.2,16.7z M172.6,21.1
			c-1.6,0.4-1.8-1.7-0.4-2C173.7,18.7,173.6,20.9,172.6,21.1z M173.6,19.1c0-0.6,0.9-0.6,0.8-0.3C174.5,19.2,173.9,19.6,173.6,19.1z
			"/>
		<path class="st2" d="M180.1,7.4c-0.5,0-0.9,0-1,0.5c-0.2,1.2,1.3,0.8,1.8,0.8c2.1,0,4.1,1.7,4.1,4.1c-0.1,0.9-0.8,2.3,0.5,2.2
			c0.8,0,1.1-1.5,0.9-2.5C186.3,9.3,183.6,7,180.1,7.4z"/>
	</g>
</g>
<g>
	<circle class="st3" cx="208" cy="16" r="16"/>
	<g>
		<path class="st2" d="M206.1,8.5c-0.5,0.4-0.9,1.8-1.3,2.7c-0.5,1-0.9,2-1.3,2.8c-1.2-1.4-2.1-4.5-3.5-5.5c-0.6-0.4-1.6-0.4-2,0
			c-1.3,0.9,0,2.6,0.5,3.5c1,2,2.3,4,3.2,5.8c-0.6,1.7-3.7,6.2,0.4,5.9c1.1-0.6,1.5-2,2-3.2c1-2.6,2-4.6,3.2-7.2
			c0.5-1.1,1.6-2.7,1.5-3.9C208.5,8.4,207,7.9,206.1,8.5z"/>
		<path class="st2" d="M218.2,17.5c-0.5-1.1-2.3-1.9-3.1-2.9c0.5-1,3.4-1.8,3.1-3.8c-0.1-1.4-2.4-1.6-2.9-0.4
			c-0.4,0.4-0.8,0.9-1.3,1.3c-0.3,0.3-0.5,0.5-0.8,0.8c-0.2,0.4-0.6,0.7-1,1c0-0.9,0-1.9,0-2.8c0-1.7-2.9-1.7-2.9,0
			c0,2.5,0,5.2,0,7.9c0.1,0.5,0.4,0.9,1,1c0.4,0,0.6,0,0.9,0c0.6-0.1,0.9-0.4,1-1c0-0.4,0-1.2,0-1.8c0-0.6-0.1-1.6,0.3-1
			c0.5,0.6,1.4,1.3,2.2,1.9c0.8,0.7,1.4,1.8,2.2,1.9C218.5,19.8,219.1,18.3,218.2,17.5z"/>
	</g>
</g>
<g>
	<ellipse class="st3" cx="240" cy="16" rx="16" ry="16"/>
	<g>
		<path class="st2" d="M241.7,16.7c-0.1-0.1-0.3-0.1-0.6-0.1s-0.7,0-1.2,0h-0.5v2.7h0.1c0.6,0,1.1,0,1.4,0c0.3,0,0.5,0,0.8-0.1
			c0.2-0.1,0.4-0.2,0.5-0.5c0.2-0.1,0.3-0.4,0.4-0.8c0-0.4-0.2-0.7-0.3-0.8C242.2,17,242,16.8,241.7,16.7z"/>
		<path class="st2" d="M240.5,14.6c0.1,0,0.4,0,0.5-0.1s0.3-0.3,0.4-0.4c0.1-0.2,0.1-0.3,0.1-0.6c0-0.1,0-0.4-0.1-0.5
			s-0.3-0.3-0.4-0.4c-0.2-0.1-0.3-0.1-0.6-0.1c-0.2,0-0.5,0-1.1,0l-0.1,2.1h0.4C240,14.6,240.4,14.6,240.5,14.6z"/>
		<path class="st2" d="M245.7,6.7h-11.5c-2,0-3.7,1.7-3.7,3.7v11.2c0,2,1.7,3.7,3.7,3.7h11.5c2,0,3.7-1.7,3.7-3.7V10.4
			C249.5,8.4,247.7,6.7,245.7,6.7z M244.6,19.6c-0.2,0.4-0.4,0.7-0.8,1c-0.4,0.2-0.7,0.4-1.3,0.6s-1.1,0.3-1.9,0.3h-4.2V10.6h3.8
			c0.9,0,1.5,0.1,1.9,0.1c0.4,0.1,0.8,0.3,1.2,0.4c0.3,0.2,0.7,0.4,0.8,0.8c0.2,0.4,0.3,0.8,0.3,1.2c0,0.5-0.1,1-0.4,1.4
			c-0.2,0.4-0.6,0.6-1,0.9c0.7,0.1,1.1,0.4,1.3,0.9c0.3,0.5,0.6,1,0.6,1.8C244.9,18.7,244.9,19.2,244.6,19.6z"/>
	</g>
</g>
<g>
	<circle class="st0" cx="304" cy="16" r="16"/>
	<g>
		<path class="st1" d="M304,16.1c3.1,0,5.6-2.5,5.6-5.6s-2.5-5.6-5.6-5.6s-5.6,2.5-5.6,5.6S300.9,16.1,304,16.1z M304,7.6
			c1.6,0,2.8,1.3,2.8,2.8c0,1.6-1.3,2.8-2.8,2.8c-1.6,0-2.8-1.3-2.8-2.8S302.4,7.6,304,7.6z"/>
		<path class="st1" d="M308.1,16.5c-1.5,1.2-4.1,1.2-4.1,1.2s-2.5,0-4.1-1.2c-1.2-0.9-2.1-0.3-2.4,0.3c-0.5,1.1,0.1,1.7,1.5,2.6
			c1.3,0.8,2.9,1.1,4,1.2l-0.9,0.9c-1.2,1.2-2.5,2.5-3.3,3.3c-0.5,0.5-0.5,1.3,0,1.8l0.2,0.2c0.5,0.5,1.3,0.5,1.8,0l3.3-3.3
			c1.2,1.2,2.5,2.5,3.3,3.3c0.5,0.5,1.3,0.5,1.8,0l0.2-0.2c0.5-0.5,0.5-1.3,0-1.8l-3.3-3.3l-0.9-0.9c1-0.1,2.7-0.4,3.9-1.2
			c1.4-0.9,2-1.4,1.4-2.6C310.2,16.1,309.3,15.6,308.1,16.5z"/>
	</g>
</g>
<g>
	<path class="st4" d="M271.9,32c-8.8,0-15.9,7.2-15.9,16s7.2,16,15.9,16S288,56.9,288,48S280.8,32,271.9,32z"/>
	<g id="XMLID_7_">
		<ellipse id="XMLID_14_" class="st1" cx="269.7" cy="41.3" rx="2.1" ry="3"/>
		<path id="XMLID_13_" class="st1" d="M265.9,48.4c2.1-0.4,1.8-2.9,1.7-3.5c-0.1-0.8-1.1-2.3-2.4-2.2c-1.7,0.2-1.9,2.6-1.9,2.6
			C263,46.6,263.8,48.9,265.9,48.4z"/>
		<path id="XMLID_12_" class="st1" d="M274.6,44.4c1.5,0.2,2.5-1.4,2.7-2.7c0.2-1.2-0.8-2.7-1.9-2.9c-1.1-0.3-2.5,1.5-2.6,2.6
			C272.7,42.8,273.1,44.2,274.6,44.4z"/>
		<path id="XMLID_11_" class="st1" d="M268.1,52.8c-0.1,0.2-0.2,0.6-0.1,1c0.2,0.9,1,0.9,1,0.9h1.1V52h-1.2
			C268.4,52.2,268.1,52.6,268.1,52.8z"/>
		<path id="XMLID_10_" class="st1" d="M278.4,51.8c0,0-2.4-1.8-3.8-3.8c-1.9-2.9-4.6-1.7-5.5-0.2c-0.9,1.5-2.3,2.4-2.5,2.7
			c-0.2,0.2-2.9,1.7-2.3,4.3s2.7,2.6,2.7,2.6s1.5,0.2,3.3-0.2c1.8-0.4,3.3,0.1,3.3,0.1s4.2,1.4,5.3-1.3
			C280.2,53.2,278.4,51.8,278.4,51.8z M271.2,55.8h-2.7c-1.2-0.2-1.6-1-1.7-1.2c-0.1-0.1-0.4-0.8-0.2-1.9c0.5-1.6,2-1.8,2-1.8h1.4
			v-1.8h1.2L271.2,55.8L271.2,55.8z M276.3,55.7h-3.1c-1.2-0.3-1.3-1.2-1.3-1.2V51h1.3v3.1c0.1,0.3,0.5,0.4,0.5,0.4h1.3v-3.6h1.3
			L276.3,55.7L276.3,55.7z"/>
		<path id="XMLID_9_" class="st1" d="M280.8,46.6c0-0.6-0.5-2.4-2.3-2.4c-1.8,0-2.1,1.7-2.1,2.9c0,1.1,0.1,2.7,2.4,2.7
			C281.1,49.7,280.8,47.1,280.8,46.6z"/>
	</g>
	<ellipse class="st4" cx="336" cy="48" rx="16" ry="16"/>
	<g>
		<path class="st2" d="M342.2,48c0-3.4-2.8-6.2-6.2-6.2s-6.2,2.8-6.2,6.2c0,3.4,2.8,6.2,6.2,6.2S342.2,51.4,342.2,48L342.2,48z
			 M342,41c-0.6,0-1,0.4-1,1s0.4,1,1,1c0.5,0,1-0.4,1-1S342.6,41,342,41L342,41z M331,39.6h10c1.9,0,3.4,1.5,3.4,3.4v10
			c0,1.9-1.5,3.4-3.4,3.4h-10c-1.9,0-3.4-1.5-3.4-3.4V43C327.6,41.1,329.1,39.6,331,39.6L331,39.6z M341,38.4h-10
			c-2.5,0-4.5,2-4.5,4.5V53c0,2.5,2,4.5,4.5,4.5h10c2.5,0,4.5-2,4.5-4.5V43C345.6,40.5,343.5,38.4,341,38.4L341,38.4z M331.1,48
			c0-2.7,2.2-4.9,4.9-4.9c2.7,0,4.9,2.2,4.9,4.9c0,2.7-2.2,4.9-4.9,4.9C333.3,52.9,331.1,50.7,331.1,48L331.1,48z"/>
	</g>
	<circle class="st4" cx="16" cy="48" r="16"/>
	<path class="st1" d="M13.8,43.3v1.8h-1.7v2.8h1.4c0,3.7,0,8.2,0,8.2h3.3c0,0,0-4.5,0-8.2h2.3l0.7-2.6h-2.6v-1.8
		c0-0.7,0.5-0.8,0.8-0.8c0.4,0,1.8,0,1.8,0V40h-2.5C14.4,39.9,13.8,42,13.8,43.3z"/>
	<circle class="st4" cx="48" cy="48" r="16"/>
	<g>
		<path class="st1" d="M47.9,46.5h-4.5v2.8h4.1c0,0.5-0.2,0.9-0.5,1.3c-0.9,1.1-2.2,1.7-3.6,1.7c-2.6,0-4.6-2-4.6-4.6
			c0-2.6,2-4.6,4.6-4.6c1.1,0,2.1,0.6,2.9,1.2l2-2c-1.3-1.1-3.1-1.9-5-1.9c-4.3,0-7.6,3.3-7.6,7.6s3.5,7.6,7.6,7.6
			c1.4,0,2.8-0.4,4-1.2c2.1-1.3,3.3-3.7,3.4-6.7c0-0.4-0.1-0.8-0.1-1.2C50.6,46.5,47.9,46.5,47.9,46.5z"/>
		<polygon class="st1" points="57.2,46.8 57.2,43.7 55.2,43.7 55.2,46.6 52.1,46.6 52.1,48.6 55.2,48.6 55.2,51.7 57.2,51.7 
			57.2,48.7 57.2,48.6 57.2,48.7 60.3,48.7 60.3,46.8 		"/>
	</g>
	<path class="st4" d="M80,32c-8.8,0-16,7.2-16,15.9C64,56.7,71.2,64,80,64s16-7.2,16-15.9C96,39.3,88.9,32,80,32z"/>
	<path class="st1" d="M87.6,41.8c-0.8,0.4-1.6,0.7-2.2,0.8c-0.5-0.6-1.5-1-2.4-1c-1.9,0-3.3,1.4-3.3,3.3c0,0.1,0,0.5,0.1,0.6
		C77,45.3,74.7,44,73,42c-0.1,0.6-0.4,1.3-0.4,1.8c0,1,0.5,2.2,1.4,2.7c-0.5,0-1-0.3-1.4-0.4c0,1.5,1.3,2.9,2.7,3.2
		c-0.3,0.1-0.6,0.1-0.9,0.1c-0.2,0-0.3-0.1-0.6-0.1c0.4,1.3,1.8,2.3,3.1,2.3c-1,0.8-2.7,1.3-4.1,1.3c-0.3,0-0.5,0-0.8,0
		c1.5,0.9,3.2,1.4,5.1,1.4c6,0,9.4-5.1,9.4-9.3c0-0.1,0-0.3,0-0.4c0.6-0.4,1.2-0.9,1.7-1.4c-0.6,0.2-1.3,0.4-1.9,0.5
		C86.8,43.2,87.3,42.6,87.6,41.8z"/>
	<circle class="st4" cx="112" cy="48" r="16"/>
	<g>
		<path class="st2" d="M111.9,41.2c-0.1,0-0.3,0-0.4,0c-0.3,0.1-0.8,0.2-1,0.8c0,0,0,0.3,0,0.4v2.1c0,0,0,0.4,0.2,0.7
			c0.2,0.2,0.4,0.5,0.8,0.5c0.1,0,0.2,0,0.3,0c0.4-0.1,0.7-0.3,0.8-0.5c0.2-0.3,0.2-0.7,0.2-0.7v-2.1c0-0.1,0-0.4,0-0.4
			C112.6,41.4,112.1,41.2,111.9,41.2 M112.1,42.4v2.1c0,0.5-0.4,0.5-0.4,0.5s-0.4,0-0.4-0.5v-2.1c0-0.6,0.4-0.6,0.4-0.6
			C112.1,41.9,112.1,42.4,112.1,42.4 M108.9,42l-0.6-2.4h-0.9l1.2,3.6v2.4h0.9v-2.4l1.1-3.6h-0.9L108.9,42z M115.1,41.2v3.5
			c-0.1,0.3-0.5,0.4-0.5,0.4c-0.3,0-0.3-0.2-0.3-0.2v-3.6h-0.8v3.9c0,0.4,0.2,0.7,0.6,0.7c0.4,0,0.9-0.6,0.9-0.6v0.5h0.8v-4.6
			C115.8,41.2,115.1,41.2,115.1,41.2z"/>
		<path class="st2" d="M117.7,47.1c-1-0.2-2.1-0.1-5.7-0.2c-2.4,0-3.6,0-3.8,0c-1.6,0.1-2.6-0.1-3,1.6c-0.2,1-0.3,2.2-0.3,3.1
			c0.1,2-0.1,4.4,1.9,4.6c1,0.1,3.6,0.1,5.3,0.1c2.3,0,4.9,0,5.7-0.2c0.4-0.1,0.7-0.5,0.8-0.6c0.5-0.7,0.5-1.7,0.6-3.9
			C119.1,49.7,119.2,47.3,117.7,47.1 M109.1,49.3h-1v5.2h-0.9v-5.2h-1v-0.9h2.9C109.1,48.3,109.1,49.3,109.1,49.3 M111.6,54.5h-0.8
			V54c0,0-0.4,0.6-0.9,0.6s-0.7-0.3-0.7-0.9v-3.8h0.8v3.7c0,0,0,0.2,0.2,0.2c0.2,0,0.5-0.3,0.5-0.4v-3.5h0.8v4.6H111.6z M114.8,53.7
			c0,0-0.1,0.9-0.6,0.9c-0.5,0-0.8-0.3-1-0.5v0.5h-0.8v-6.1h0.8v2c0,0,0.4-0.5,0.8-0.5c0.4,0,0.8,0.3,0.8,0.8
			C114.8,50.8,114.8,53.7,114.8,53.7z M117.9,53.7c-0.1,0.8-1.1,0.9-1.1,0.9c-1.4,0-1.3-1.3-1.3-1.3v-2.2c0-0.2,0.1-0.4,0.1-0.4
			c0.1-0.3,0.2-0.8,1.2-0.8c1.2,0,1.2,1.2,1.2,1.2v1.3h-1.6v0.9c0,0.3,0.1,0.5,0.5,0.5c0.3,0,0.3-0.5,0.3-0.5V53h0.8
			C117.9,52.9,118,53.1,117.9,53.7 M117.1,51.1c0,0,0-0.5-0.4-0.5c-0.4,0-0.4,0.4-0.4,0.5v0.6h0.8V51.1z M113.6,50.6
			c-0.2,0-0.4,0.2-0.4,0.2v2.8c0.1,0.2,0.4,0.2,0.4,0.2c0.3,0,0.3-0.4,0.3-0.4v-2.3C113.9,50.8,113.8,50.6,113.6,50.6"/>
	</g>
	<circle class="st5" cx="144" cy="48" r="16"/>
	<g>
		<path class="st2" d="M153.6,49.4c-0.4-0.9-0.9-1.7-1.3-2.3c0.3-0.6,0.3-1.4,0-1.9c-0.1-0.3-0.3-0.5-0.4-0.8
			c-0.2-0.4-0.2-0.9-0.3-1.3s-0.3-0.8-0.4-1.2c-0.9-2.4-2.8-3.8-5.9-4.1c-0.4,0-0.8,0-1.2,0c-0.9,0-2,0.2-2.6,0.5
			c-0.8,0.4-1.3,0.8-1.8,1.3c-1,0.9-2.1,2.4-2.2,4.1c0,0.1,0,0.3,0,0.4c-0.2,0.1-0.3,0.3-0.3,0.4c-0.1,0.3-0.1,0.5-0.1,0.8
			c-0.3,0.5-0.6,1.2-0.3,1.8c-0.9,0.6-1.7,1.4-2.2,2.4c-0.3,0.8-0.7,1.9-0.6,3.2c0,0.4,0.1,0.9,0.4,0.9c0.1,0,0.3-0.1,0.4-0.1
			c0.4-0.3,0.6-0.5,0.9-0.9c0.2-0.1,0.2-0.4,0.3-0.5c0,0.2,0.1,0.4,0.1,0.5c0.5,1,1.1,1.8,1.7,2.3c0,0,0.3,0.2,0.3,0.3
			c-0.1,0-0.1,0-0.2,0c0.1,0,0.4,0.1,0.7,0c1.2,0.9,2.7,1.4,4.5,1.7c-0.4,0.6-1.6,0.9-2.8,0.9c-1.4,0-2.8-0.1-3.6-0.6
			c-0.2-0.1-0.3-0.2-0.4-0.3l0,0c0,0.5,0.7,0.9,1.2,1c0.9,0.3,2.3,0.4,3.5,0.3c1.2-0.2,1.8-0.4,2.6-0.8c0.2,0,0.2-0.1,0.3-0.1
			c0,0,0.3,0,0.4,0c0.1,0,0.3,0,0.4,0c0.3,0,0.6,0.2,0.9,0.3c1.8,0.5,4.7,0.6,6-0.3c0.2-0.1,0.5-0.3,0.5-0.6c0-0.4-0.2-0.6-0.5-0.9
			c-0.4-0.3-0.8-0.5-1.3-0.8c0.6-0.6,0.9-1.1,1.2-1.9c0.1-0.2,0.3-0.5,0.4-0.6c0.1,0.3,0.3,0.5,0.4,0.8c0.1,0.1,0.3,0.5,0.6,0.5
			c0.1,0,0.3-0.2,0.4-0.3c0.3-0.4,0.4-1,0.9-1.2C154.2,51.2,154,50.2,153.6,49.4z M140.1,45.1c0.6-0.3,1.5-0.5,2.3-0.6
			c-1.2-0.1-1.4-2.2-0.9-3.2c0.1-0.3,0.5-0.6,0.9-0.6c0.8,0,1.2,1,1.2,1.9c0.1,0.8-0.2,1.6-0.8,1.9c0.9-0.1,1.8-0.1,2.6-0.1
			c-0.8-0.5-0.9-2.3-0.5-3c0.2-0.2,0.4-0.5,0.8-0.5c0.1,0,0.3,0,0.4,0c1.2,0.4,1.2,3.2,0,3.6l0,0c0.8,0.2,1.5,0.4,2.1,0.8
			c0.1,0.1,0.4,0.3,0.4,0.4c0,0.2-0.5,0.5-0.6,0.5c-0.3,0.2-0.5,0.3-0.9,0.3c0.1-0.1,0.4-0.2,0.5-0.5c-1,0.7-2.3,1.3-4.1,1.2
			c-1-0.2-2-0.7-2.8-1.2c0,0.1,0.2,0.2,0.3,0.5c-0.3-0.1-0.9-0.3-1.2-0.4c0-0.2-0.2-0.2-0.5-0.4C139.3,45.5,139.8,45.2,140.1,45.1z
			 M151.1,55.6c-0.2,0-0.5,0-0.6,0.3c0.6,0,1.5-0.2,1.4,0.6c-0.1,0.1-0.3,0.4-0.4,0.5c-0.7,0.5-1.9,0.8-3.1,0.8
			c-1.1,0-2.4-0.2-2.9-0.6c1.9-0.2,3.3-1,4.4-2.1C150.4,55.1,150.7,55.3,151.1,55.6z M150.7,52.6c-0.1,0.8-0.6,1.5-1,2
			c-0.3,0.4-0.8,0.9-1.3,1.2s-1.2,0.5-1.7,0.8c-0.7,0.2-1.3,0.3-1.9,0.3c-1.8,0-3.6-0.4-4.9-1.2c-0.7-0.4-1.2-0.8-1.7-1.3
			c-0.5-0.6-0.9-1.2-1-2c-0.1-0.4-0.1-0.6-0.1-0.9c0-0.9,0.3-2.4,0.8-2.9c0.4,0.2,0.7,0.3,1,0.6c-0.1,0.9-0.1,1.5-0.1,2.3
			c0.1,0.2,0,0.5,0.1,0.6c0.2,0.5,0.8,0.9,1.4,0.9c0.2,0,0.7,0,1-0.1c0.1,0,0.4-0.2,0.4-0.5c0.1-0.2,0-0.6,0-1s0-0.7,0-1
			c3.1,0.7,6.1-0.2,8.2-1.8C150.4,49.7,151.2,50.9,150.7,52.6z"/>
		<path class="st2" d="M136.8,56c-0.2,0-0.4,0.1-0.5,0.1l0,0c0,0.2-0.1,0.3-0.1,0.5C136.3,56.4,136.5,56.1,136.8,56z"/>
		<path class="st2" d="M142.4,44.5c0.1,0,0.3,0,0.4-0.1C142.7,44.4,142.5,44.4,142.4,44.5z"/>
		<path class="st2" d="M146.1,44.5c-0.2,0-0.5-0.1-0.7-0.1c0.1,0,0.1,0.1,0.2,0.1S146,44.5,146.1,44.5z"/>
		<path class="st2" d="M137.8,55.3c-0.1,0-0.1,0-0.1,0c-0.5,0-0.7,0.1-1.1,0.4c-0.3,0.1-0.5,0.3-0.3,0.5c0,0,0,0,0-0.1
			C136.5,55.6,137,55.4,137.8,55.3z"/>
		<path class="st2" d="M136.2,56.6c0,0.1,0,0.2,0,0.3C136.2,56.8,136.2,56.7,136.2,56.6L136.2,56.6z"/>
	</g>
	<circle class="st5" cx="176" cy="48" r="16"/>
	<g>
		<path class="st2" d="M182.9,46.3c0.5,0,0.7-0.9,0.6-1.8c-0.1-1.4-1.4-2.4-2.8-2.3c-0.3,0-0.9,0-0.9,0.6c0,1.1,1.2,0.4,1.8,0.8
			c0.4,0.2,0.8,0.7,0.8,1.2C182.4,45.5,182.2,46.1,182.9,46.3z"/>
		<path class="st2" d="M181.3,47.5c0.3-0.8,0.5-2,0-2.6c-1.2-1.3-3.9,0-5.2,0.1c0.5-1.8,0-3.6-2.3-3.1c-2.1,0.5-3.6,1.7-5,3.1
			c-1.4,1.5-2.9,3.2-3.2,5.5c-0.3,2.4,1.2,3.8,2.9,4.7c4.6,2.8,12.2,1.2,14.8-2.3c0.4-0.6,0.7-1.4,0.8-1.9
			C184.2,48.5,182.4,48.2,181.3,47.5z M179.3,53c-1.3,1.5-4,2.4-6.8,2.3c-2.4-0.1-5.7-1.6-5.1-4.5c0.3-1.4,1.4-2.3,2.3-2.8
			c1.1-0.5,2.1-0.9,3.8-1c2.9-0.3,6.6,0.8,6.7,3.7C180.2,51.7,179.8,52.5,179.3,53z"/>
		<path class="st2" d="M173.2,48.7c-2,0.1-4,1.8-3.2,4.1c1.3,3.3,7.9,1.5,6.5-2.2C176.3,49.3,175,48.6,173.2,48.7z M172.6,53.1
			c-1.6,0.4-1.8-1.7-0.4-2C173.7,50.7,173.6,52.9,172.6,53.1z M173.6,51.1c0-0.6,0.9-0.6,0.8-0.3C174.5,51.2,173.9,51.6,173.6,51.1z
			"/>
		<path class="st2" d="M180.1,39.4c-0.5,0-0.9,0-1,0.5c-0.2,1.2,1.3,0.8,1.8,0.8c2.1,0,4.1,1.7,4.1,4.1c-0.1,0.9-0.8,2.3,0.5,2.2
			c0.8,0,1.1-1.5,0.9-2.5C186.3,41.3,183.6,39,180.1,39.4z"/>
	</g>
	<circle class="st5" cx="208" cy="48" r="16"/>
	<g>
		<path class="st2" d="M206.1,40.5c-0.5,0.4-0.9,1.8-1.3,2.7c-0.5,1-0.9,2-1.3,2.8c-1.2-1.4-2.1-4.5-3.5-5.5c-0.6-0.4-1.6-0.4-2,0
			c-1.3,0.9,0,2.6,0.5,3.5c1,2,2.3,4,3.2,5.8c-0.6,1.7-3.7,6.2,0.4,5.9c1.1-0.6,1.5-2,2-3.2c1-2.6,2-4.6,3.2-7.2
			c0.5-1.1,1.6-2.7,1.5-3.9C208.5,40.4,207,39.9,206.1,40.5z"/>
		<path class="st2" d="M218.2,49.5c-0.5-1.1-2.3-1.9-3.1-2.9c0.5-1,3.4-1.8,3.1-3.8c-0.1-1.4-2.4-1.6-2.9-0.4
			c-0.4,0.4-0.8,0.9-1.3,1.3c-0.3,0.3-0.5,0.5-0.8,0.8c-0.2,0.4-0.6,0.7-1,1c0-0.9,0-1.9,0-2.8c0-1.7-2.9-1.7-2.9,0
			c0,2.5,0,5.2,0,7.9c0.1,0.5,0.4,0.9,1,1c0.4,0,0.6,0,0.9,0c0.6-0.1,0.9-0.4,1-1c0-0.4,0-1.2,0-1.8s-0.1-1.6,0.3-1
			c0.5,0.6,1.4,1.3,2.2,1.9c0.8,0.7,1.4,1.8,2.2,1.9C218.5,51.8,219.1,50.3,218.2,49.5z"/>
	</g>
	<ellipse class="st5" cx="240" cy="48" rx="16" ry="16"/>
	<g>
		<path class="st2" d="M241.7,48.7c-0.1-0.1-0.3-0.1-0.6-0.1s-0.7,0-1.2,0h-0.5v2.7h0.1c0.6,0,1.1,0,1.4,0s0.5,0,0.8-0.1
			c0.2-0.1,0.4-0.2,0.5-0.5c0.2-0.1,0.3-0.4,0.4-0.8c0-0.4-0.2-0.7-0.3-0.8C242.2,49,242,48.8,241.7,48.7z"/>
		<path class="st2" d="M240.5,46.6c0.1,0,0.4,0,0.5-0.1c0.1-0.1,0.3-0.3,0.4-0.4c0.1-0.2,0.1-0.3,0.1-0.6c0-0.1,0-0.4-0.1-0.5
			c-0.1-0.1-0.3-0.3-0.4-0.4c-0.2-0.1-0.3-0.1-0.6-0.1c-0.2,0-0.5,0-1.1,0l-0.1,2.1h0.4C240,46.6,240.4,46.6,240.5,46.6z"/>
		<path class="st2" d="M245.7,38.7h-11.5c-2,0-3.7,1.7-3.7,3.7v11.2c0,2,1.7,3.7,3.7,3.7h11.5c2,0,3.7-1.7,3.7-3.7V42.4
			C249.5,40.4,247.7,38.7,245.7,38.7z M244.6,51.6c-0.2,0.4-0.4,0.7-0.8,1c-0.4,0.2-0.7,0.4-1.3,0.6c-0.6,0.2-1.1,0.3-1.9,0.3h-4.2
			V42.6h3.8c0.9,0,1.5,0.1,1.9,0.1c0.4,0.1,0.8,0.3,1.2,0.4c0.3,0.2,0.7,0.4,0.8,0.8c0.2,0.4,0.3,0.8,0.3,1.2c0,0.5-0.1,1-0.4,1.4
			c-0.2,0.4-0.6,0.6-1,0.9c0.7,0.1,1.1,0.4,1.3,0.9c0.3,0.5,0.6,1,0.6,1.8C244.9,50.7,244.9,51.2,244.6,51.6z"/>
	</g>
	<circle class="st4" cx="304" cy="48" r="16"/>
	<g>
		<path class="st1" d="M304,48.1c3.1,0,5.6-2.5,5.6-5.6c0-3.1-2.5-5.6-5.6-5.6s-5.6,2.5-5.6,5.6C298.4,45.6,300.9,48.1,304,48.1z
			 M304,39.6c1.6,0,2.8,1.3,2.8,2.8c0,1.6-1.3,2.8-2.8,2.8c-1.6,0-2.8-1.3-2.8-2.8C301.2,40.9,302.4,39.6,304,39.6z"/>
		<path class="st1" d="M308.1,48.5c-1.5,1.2-4.1,1.2-4.1,1.2s-2.5,0-4.1-1.2c-1.2-0.9-2.1-0.3-2.4,0.3c-0.5,1.1,0.1,1.7,1.5,2.6
			c1.3,0.8,2.9,1.1,4,1.2l-0.9,0.9c-1.2,1.2-2.5,2.5-3.3,3.3c-0.5,0.5-0.5,1.3,0,1.8l0.2,0.2c0.5,0.5,1.3,0.5,1.8,0l3.3-3.3
			c1.2,1.2,2.5,2.5,3.3,3.3c0.5,0.5,1.3,0.5,1.8,0l0.2-0.2c0.5-0.5,0.5-1.3,0-1.8l-3.3-3.3l-0.9-0.9c1-0.1,2.7-0.4,3.9-1.2
			c1.4-0.9,2-1.4,1.4-2.6C310.2,48.1,309.3,47.6,308.1,48.5z"/>
	</g>
</g>
<g>
	<g>
		<circle class="st1" cx="367.5" cy="16" r="14"/>
		<circle class="st1" cx="367.5" cy="48" r="14"/>
		<circle class="st1" cx="399.5" cy="16" r="15"/>
		<circle class="st1" cx="399.5" cy="48" r="15"/>
		<path class="st1" d="M446.5,29.8V4.1c-0.1-1.2-1.1-2.2-2.3-2.2h-25.4c-1.2,0-2.3,0.9-2.3,2.2V17v12.9c0,1.2,1,2.1,2.2,2.2
			c-1.2,0-2.2,1-2.2,2.2V47v12.8c0,1.2,1,2.2,2.3,2.2h25.5c1.2,0,2.3-0.9,2.3-2.2V34.2c-0.1-1.2-1.1-2.1-2.2-2.1
			C445.5,32,446.5,31,446.5,29.8z"/>
	</g>
	<g>
		<g>
			<path class="st0" d="M373,14.9L373,14.9c-1.4,0-1.8,0.8-1.8,1.4h3.6C374.5,15.2,374.1,14.9,373,14.9z"/>
			<path class="st0" d="M365.5,13.5c0-1.1-0.8-1.3-1.7-1.3l0,0h-2.5v2.6h2.7C364.8,14.8,365.5,14.4,365.5,13.5z"/>
			<path class="st0" d="M364.1,16.6h-2.9v3h2.8c1,0,1.7-0.3,1.7-1.5S365.2,16.6,364.1,16.6z"/>
			<path class="st0" d="M368,0c-8.8,0-16,7.2-16,16s7.2,16,16,16s16-7.2,16-16S376.8,0,368,0z M375.4,11.1v1.5H371v-1.5H375.4z
				 M368.3,18.2c0,2.2-1.9,3.2-3.9,3.2H359V10.3h5.2c2.1,0,3.6,0.8,3.6,2.8c0,1-0.6,1.9-1.5,2.3C367.7,15.8,368.3,16.8,368.3,18.2
				L368.3,18.2z M377,17.7l-5.8,0c0.1,1.4,0.8,2.3,2,2.3c0.8,0,1.5-0.5,1.9-1.2h1.9c-0.6,1.9-2,2.9-3.9,2.9c-2.5,0-4.1-1.7-4.1-4.2
				c0-2.4,1.7-4.2,4.1-4.2C375.8,13.2,377.1,15.2,377,17.7z"/>
		</g>
		<g>
			<path class="st4" d="M373,46.9L373,46.9c-1.4,0-1.8,0.8-1.8,1.4h3.6C374.5,47.2,374.1,46.9,373,46.9z"/>
			<path class="st4" d="M365.5,45.5c0-1.1-0.8-1.3-1.7-1.3l0,0h-2.5v2.6h2.7C364.8,46.8,365.5,46.4,365.5,45.5z"/>
			<path class="st4" d="M364.1,48.6h-2.9v3h2.8c1,0,1.7-0.3,1.7-1.5C365.8,49,365.2,48.6,364.1,48.6z"/>
			<path class="st4" d="M368,32c-8.8,0-16,7.2-16,16s7.2,16,16,16s16-7.2,16-16S376.8,32,368,32z M375.4,43.1v1.5H371v-1.5H375.4z
				 M368.3,50.2c0,2.2-1.9,3.2-3.9,3.2H359V42.4h5.2c2.1,0,3.6,0.8,3.6,2.8c0,1-0.6,1.9-1.5,2.3C367.7,47.8,368.3,48.9,368.3,50.2
				L368.3,50.2z M377,49.7l-5.8,0c0.1,1.4,0.8,2.3,2,2.3c0.8,0,1.5-0.5,1.9-1.2h1.9c-0.6,1.9-2,2.9-3.9,2.9c-2.5,0-4.1-1.7-4.1-4.2
				c0-2.4,1.7-4.2,4.1-4.2C375.8,45.2,377.1,47.3,377,49.7z"/>
		</g>
		<path class="st0" d="M400,0c-8.8,0-16,7.2-16,16s7.2,16,16,16c8.8,0,16-7.2,16-16S408.8,0,400,0z M401.4,20
			c-1.1,0-2.2-0.6-2.5-1.3c0,0-0.6,2.4-0.7,2.8c-0.4,1.6-1.8,3.2-1.9,3.4c0,0.1-0.1,0.1-0.2,0c0,0,0,0,0-0.1c0-0.2-0.4-2.3,0-3.9
			c0.2-0.8,1.3-5.6,1.3-5.6c-0.2-0.5-0.3-1.1-0.3-1.6c0-1.5,0.9-2.7,2-2.7c0.9,0,1.4,0.7,1.4,1.5c0,0.9-0.6,2.4-0.9,3.6
			c-0.2,0.8,0.3,1.7,1.2,1.9c0.2,0,0.3,0,0.5,0c2,0,3.3-2.5,3.3-5.5c0-2.3-1.5-3.9-4.3-3.9c-3.1,0-5.1,2.3-5.1,4.9
			c0,0.7,0.2,1.5,0.7,2c0.2,0.1,0.2,0.4,0.1,0.6c0,0.2-0.2,0.6-0.2,0.8c0,0.2-0.3,0.3-0.4,0.3c0,0,0,0-0.1,0
			c-1.4-0.6-2.1-2.2-2.1-3.9c0-2.9,2.5-6.4,7.4-6.4c3.9,0,6.5,2.8,6.5,5.9C406.9,17,404.7,20,401.4,20z"/>
		<path class="st4" d="M400,32c-8.8,0-16,7.2-16,16s7.2,16,16,16c8.8,0,16-7.2,16-16S408.8,32,400,32z M401.4,52
			c-1.1,0-2.2-0.6-2.5-1.3c0,0-0.6,2.4-0.7,2.8c-0.4,1.6-1.8,3.2-1.9,3.4c0,0.1-0.1,0.1-0.2,0c0,0,0,0,0-0.1c0-0.2-0.4-2.3,0-3.9
			c0.2-0.8,1.3-5.6,1.3-5.6c-0.2-0.5-0.3-1.1-0.3-1.6c0-1.5,0.9-2.7,2-2.7c0.9,0,1.4,0.7,1.4,1.5c0,0.9-0.6,2.4-0.9,3.6
			c-0.2,0.8,0.3,1.7,1.2,1.9c0.2,0,0.3,0,0.5,0c2,0,3.3-2.5,3.3-5.5c0-2.3-1.5-3.9-4.3-3.9c-3.1,0-5.1,2.3-5.1,4.9
			c0,0.7,0.2,1.5,0.7,2c0.2,0.1,0.2,0.4,0.1,0.6c0,0.2-0.2,0.6-0.2,0.8c0,0.2-0.3,0.3-0.4,0.3c0,0,0,0-0.1,0
			c-1.4-0.6-2.1-2.2-2.1-3.9c0-2.9,2.5-6.4,7.4-6.4c3.9,0,6.5,2.8,6.5,5.9C406.9,49,404.7,52,401.4,52z"/>
		<path class="st0" d="M445.5,0h-27.1c-1.3,0-2.4,1-2.4,2.3v27.4c0,1.3,1.1,2.3,2.4,2.3h27.2c1.3,0,2.4-1,2.4-2.3V2.3
			C447.9,1,446.8,0,445.5,0z M425.5,27.3h-4.8V12h4.8C425.5,12,425.5,27.3,425.5,27.3z M423.1,10c-1.5,0-2.8-1.2-2.8-2.8
			c0.1-1.6,1.3-2.8,2.8-2.8c1.5,0,2.8,1.2,2.8,2.8C425.9,8.7,424.7,10,423.1,10z M443.2,27.3h-4.7v-7.4c0-1.8,0-4-2.5-4
			s-2.8,1.9-2.8,3.9v7.6h-4.7V12h4.4v2.1h0.1c0.6-1.2,2.2-2.5,4.5-2.5c4.8,0,5.7,3.2,5.7,7.3L443.2,27.3L443.2,27.3z"/>
		<path class="st4" d="M445.5,32h-27.1c-1.3,0-2.4,1-2.4,2.3v27.4c0,1.3,1.1,2.3,2.4,2.3h27.2c1.3,0,2.4-1,2.4-2.3V34.3
			C447.9,33,446.8,32,445.5,32z M425.5,59.3h-4.8V44h4.8C425.5,44,425.5,59.3,425.5,59.3z M423.1,42c-1.5,0-2.8-1.2-2.8-2.8
			c0.1-1.6,1.3-2.8,2.8-2.8c1.5,0,2.8,1.2,2.8,2.8C425.9,40.7,424.7,42,423.1,42z M443.2,59.3h-4.7v-7.4c0-1.8,0-4-2.5-4
			s-2.8,1.9-2.8,3.9v7.6h-4.7V44h4.4v2.1h0.1c0.6-1.2,2.2-2.5,4.5-2.5c4.8,0,5.7,3.2,5.7,7.3L443.2,59.3L443.2,59.3z"/>
	</g>
</g>
<g>
	<g>
		<circle class="st1" cx="464" cy="48" r="14.1"/>
		<path class="st4" d="M464,32c-8.8,0-16,7.2-16,16c0,8.8,7.2,16,16,16c8.8,0,16-7.2,16-16C480,39.1,472.9,32,464,32z M461,55.4
			c0,0.2-0.1,0.4-0.3,0.4c-0.1,0-0.1,0-0.2-0.1l-5.2-2.6c-0.2-0.1-0.3-0.3-0.3-0.5V40.5c0-0.1,0-0.1,0.1-0.2c0,0,0.1-0.1,0.1-0.1
			c0,0,0.1,0,0.1,0l0.3,0.2l5.3,2.7c0,0,0.1,0.1,0.1,0.1V55.4z M461.5,50.2V44l5.5,9L461.5,50.2z M463.4,46l3.5-5.8
			c0-0.1,0.1-0.1,0.2-0.1c0,0,0,0,0,0c0,0,0.1,0,0.1,0l5.8,2.9c0.1,0,0.1,0.1,0.1,0.2l-5.7,9.2L463.4,46z M473.1,55.4
			c0,0.3-0.2,0.4-0.5,0.3l-5.1-2.5l5.6-9.1V55.4z"/>
	</g>
	<g>
		<circle class="st1" cx="464" cy="16" r="14.1"/>
		<path class="st0" d="M464,0c-8.8,0-16,7.2-16,16c0,8.8,7.2,16,16,16c8.8,0,16-7.2,16-16C480,7.1,472.9,0,464,0z M461,23.4
			c0,0.2-0.1,0.4-0.3,0.4c-0.1,0-0.1,0-0.2-0.1l-5.2-2.6c-0.2-0.1-0.3-0.3-0.3-0.5V8.5c0-0.1,0-0.1,0.1-0.2c0,0,0.1-0.1,0.1-0.1
			c0,0,0.1,0,0.1,0l0.3,0.2l5.3,2.7c0,0,0.1,0.1,0.1,0.1V23.4z M461.5,18.2V12l5.5,9L461.5,18.2z M463.4,14l3.5-5.8
			c0-0.1,0.1-0.1,0.2-0.1c0,0,0,0,0,0c0,0,0.1,0,0.1,0l5.8,2.9c0.1,0,0.1,0.1,0.1,0.2l-5.7,9.2L463.4,14z M473.1,23.4
			c0,0.3-0.2,0.4-0.5,0.3l-5.1-2.5l5.6-9.1V23.4z"/>
	</g>
</g>
</svg>
